<?xml version="1.0" encoding="UTF-8"?>
<!DOCTYPE svg PUBLIC "-//W3C//DTD SVG 1.1//EN" "http://www.w3.org/Graphics/SVG/1.1/DTD/svg11.dtd">
<svg xmlns="http://www.w3.org/2000/svg" version="1.1" width="68px" height="44px" style="shape-rendering:geometricPrecision; text-rendering:geometricPrecision; image-rendering:optimizeQuality; fill-rule:evenodd; clip-rule:evenodd" xmlns:xlink="http://www.w3.org/1999/xlink">
<g><path style="opacity:1" fill="#1c2044" d="M -0.5,-0.5 C 22.1667,-0.5 44.8333,-0.5 67.5,-0.5C 67.5,14.1667 67.5,28.8333 67.5,43.5C 44.8333,43.5 22.1667,43.5 -0.5,43.5C -0.5,28.8333 -0.5,14.1667 -0.5,-0.5 Z"/></g>
<g><path style="opacity:1" fill="#f0eeed" d="M 12.5,16.5 C 11.8826,16.6107 11.3826,16.944 11,17.5C 10.1993,20.367 10.3659,23.0336 11.5,25.5C 14.1761,31.4048 18.5094,32.9048 24.5,30C 25.8228,29.1841 26.4894,28.0174 26.5,26.5C 27.404,25.791 27.7373,24.791 27.5,23.5C 24.5,23.5 21.5,23.5 18.5,23.5C 18.5,22.5 18.5,21.5 18.5,20.5C 22.8333,20.5 27.1667,20.5 31.5,20.5C 31.5,25.5 31.5,30.5 31.5,35.5C 29.549,35.7733 28.049,35.1066 27,33.5C 17.2774,38.2408 10.7774,35.5742 7.5,25.5C 7.55241,21.8019 7.88575,18.1352 8.5,14.5C 12.3722,8.8531 17.7055,7.01976 24.5,9C 28.1813,10.8369 30.5147,13.6702 31.5,17.5C 27.5609,15.9484 23.5609,14.2817 19.5,12.5C 16.3724,12.5605 14.0391,13.8939 12.5,16.5 Z"/></g>
<g><path style="opacity:1" fill="#f0eeed" d="M 47.5,16.5 C 46.8826,16.6107 46.3826,16.944 46,17.5C 45.1993,20.367 45.3659,23.0336 46.5,25.5C 49.1761,31.4048 53.5094,32.9048 59.5,30C 60.8228,29.1841 61.4894,28.0174 61.5,26.5C 62.404,25.791 62.7373,24.791 62.5,23.5C 59.5,23.5 56.5,23.5 53.5,23.5C 53.5,22.5 53.5,21.5 53.5,20.5C 57.8333,20.5 62.1667,20.5 66.5,20.5C 66.5,25.5 66.5,30.5 66.5,35.5C 64.549,35.7733 63.049,35.1066 62,33.5C 52.2774,38.2408 45.7774,35.5742 42.5,25.5C 42.5524,21.8019 42.8857,18.1352 43.5,14.5C 47.3722,8.8531 52.7055,7.01976 59.5,9C 63.1813,10.8369 65.5147,13.6702 66.5,17.5C 62.5609,15.9484 58.5609,14.2817 54.5,12.5C 51.3724,12.5605 49.0391,13.8939 47.5,16.5 Z"/></g>
<g><path style="opacity:1" fill="#eff4f3" d="M 34.5,8.5 C 35.8333,8.5 37.1667,8.5 38.5,8.5C 38.5,17.5 38.5,26.5 38.5,35.5C 37.1667,35.5 35.8333,35.5 34.5,35.5C 34.5,26.5 34.5,17.5 34.5,8.5 Z"/></g>
<g><path style="opacity:1" fill="#8cbfeb" d="M 8.5,14.5 C 7.88575,18.1352 7.55241,21.8019 7.5,25.5C 6.09761,21.7104 6.43095,18.0437 8.5,14.5 Z"/></g>
<g><path style="opacity:1" fill="#8cbfeb" d="M 43.5,14.5 C 42.8857,18.1352 42.5524,21.8019 42.5,25.5C 41.0976,21.7104 41.4309,18.0437 43.5,14.5 Z"/></g>
<g><path style="opacity:1" fill="#d9ac8b" d="M 12.5,16.5 C 11.701,19.4299 11.3677,22.4299 11.5,25.5C 10.3659,23.0336 10.1993,20.367 11,17.5C 11.3826,16.944 11.8826,16.6107 12.5,16.5 Z"/></g>
<g><path style="opacity:1" fill="#d9ac8b" d="M 47.5,16.5 C 46.701,19.4299 46.3677,22.4299 46.5,25.5C 45.3659,23.0336 45.1993,20.367 46,17.5C 46.3826,16.944 46.8826,16.6107 47.5,16.5 Z"/></g>
<g><path style="opacity:1" fill="#869ab9" d="M 18.5,20.5 C 18.5,21.5 18.5,22.5 18.5,23.5C 21.5,23.5 24.5,23.5 27.5,23.5C 27.7373,24.791 27.404,25.791 26.5,26.5C 24.0122,24.6122 21.0122,23.9455 17.5,24.5C 17.2322,22.901 17.5655,21.5676 18.5,20.5 Z"/></g>
<g><path style="opacity:1" fill="#869ab9" d="M 53.5,20.5 C 53.5,21.5 53.5,22.5 53.5,23.5C 56.5,23.5 59.5,23.5 62.5,23.5C 62.7373,24.791 62.404,25.791 61.5,26.5C 59.0122,24.6122 56.0122,23.9455 52.5,24.5C 52.2322,22.901 52.5655,21.5676 53.5,20.5 Z"/></g>
</svg>
